HIERARCHY
ROOT Hips
{
	OFFSET 0.000000 88.474243 0.000000
	CHANNELS 6 Xposition Yposition Zposition Zrotation Yrotation Xrotation 
	JOINT Hips_Spine
	{
		OFFSET 0.000000 0.000000 0.000000
		CHANNELS 3 Zrotation Yrotation Xrotation
		JOINT Spine
		{
			OFFSET 0.005100 8.711998 -0.691000
			CHANNELS 3 Zrotation Yrotation Xrotation
			JOINT Spine1
			{
				OFFSET -0.009200 8.660301 -1.275000
				CHANNELS 3 Zrotation Yrotation Xrotation
				JOINT Spine2
				{
					OFFSET 0.006300 9.852501 -1.857000
					CHANNELS 3 Zrotation Yrotation Xrotation
					JOINT Spine2_Neck
					{
						OFFSET 0.000000 0.000000 0.000000
						CHANNELS 3 Zrotation Yrotation Xrotation
						JOINT Neck
						{
							OFFSET 0.016300 11.420799 -0.263300
							CHANNELS 3 Zrotation Yrotation Xrotation
							End Site #name: Head
							{
								OFFSET -0.019200 9.262405 2.362500
							}
						}
					}
					JOINT Spine2_LeftShoulder
					{
						OFFSET 0.000000 0.000000 0.000000
						CHANNELS 3 Zrotation Yrotation Xrotation
						JOINT LeftShoulder
						{
							OFFSET 5.616900 6.732201 -0.345700
							CHANNELS 3 Zrotation Yrotation Xrotation
							JOINT LeftArm
							{
								OFFSET 10.664888 -0.183372 -2.440700
								CHANNELS 3 Zrotation Yrotation Xrotation
								JOINT LeftForeArm
								{
									OFFSET 27.459126 0.000000 0.000000
									CHANNELS 3 Zrotation Yrotation Xrotation
									End Site #name: LeftHand
									{
										OFFSET 21.306858 0.000000 0.000000
									}
								}
							}
						}
					}
					JOINT Spine2_RightShoulder
					{
						OFFSET 0.000000 0.000000 0.000000
						CHANNELS 3 Zrotation Yrotation Xrotation
						JOINT RightShoulder
						{
							OFFSET -5.580300 6.737503 -0.344400
							CHANNELS 3 Zrotation Yrotation Xrotation
							JOINT RightArm
							{
								OFFSET -10.679335 -0.188484 -2.383900
								CHANNELS 3 Zrotation Yrotation Xrotation
								JOINT RightForeArm
								{
									OFFSET -27.503529 0.000000 0.000000
									CHANNELS 3 Zrotation Yrotation Xrotation
									End Site #name: RightHand
									{
										OFFSET -21.306808 0.000000 0.000000
									}
								}
							}
						}
					}
				}
			}
		}
	}
	JOINT Hips_LeftUpLeg
	{
		OFFSET 0.000000 0.000000 0.000000
		CHANNELS 3 Zrotation Yrotation Xrotation
		JOINT LeftUpLeg
		{
			OFFSET 6.857700 -6.739601 0.312100
			CHANNELS 3 Zrotation Yrotation Xrotation
			JOINT LeftLeg
			{
				OFFSET -0.367590 -34.731552 -4.572400
				CHANNELS 3 Zrotation Yrotation Xrotation
				End Site #name: LeftFoot
				{
					OFFSET 0.367590 -34.656704 -6.067400
				}
			}
		}
	}
	JOINT Hips_RightUpLeg
	{
		OFFSET 0.000000 0.000000 0.000000
		CHANNELS 3 Zrotation Yrotation Xrotation
		JOINT RightUpLeg
		{
			OFFSET -6.876100 -6.733299 0.301000
			CHANNELS 3 Zrotation Yrotation Xrotation
			JOINT RightLeg
			{
				OFFSET 0.347353 -34.795158 -4.515900
				CHANNELS 3 Zrotation Yrotation Xrotation
				End Site #name: RightFoot
				{
					OFFSET -0.347353 -34.589367 -6.070300
				}
			}
		}
	}
}
MOTION
Frames: 14
Frame Time: 0.041667
0.628382 -0.134258 -2.169374 -3.058139 4.982513 0.333634 -0.000000 -0.000000 0.000000 -0.856702 -1.735252 2.614162 3.952671 -0.221111 2.803863 0.000000 0.000000 0.000000 3.444177 -0.167746 3.501171 -2.254897 -2.391791 -0.509722 2.634712 0.057824 4.098852 -5.416202 -13.094673 2.213876 -88.636916 8.808600 6.821548 -1.370982 -14.091966 0.764090 3.605895 0.085740 2.566308 8.992897 15.019213 3.307614 40.090982 55.421391 -17.287336 178.421555 40.830520 -178.949831 0.000000 0.000000 -0.000000 2.150461 16.214192 -20.031949 -0.469004 -4.984269 10.821476 0.000000 0.000000 0.000000 9.420400 -2.016217 -5.447651 -1.409287 -8.277391 6.900033 
0.633165 -0.135950 -2.230755 -3.012614 4.996350 0.339277 -0.000000 -0.000000 0.000000 -0.861933 -1.769326 2.604508 3.979937 -0.236068 2.799658 0.000000 0.000000 0.000000 3.460472 -0.172136 3.496318 -2.248385 -2.388693 -0.483492 2.648112 0.054077 4.093479 -5.417707 -13.103020 2.215505 -88.702041 8.765475 6.781761 -1.370615 -13.917159 0.762824 3.630453 0.078306 2.564013 9.033223 14.996297 3.307067 40.172012 55.344770 -17.173380 178.425703 40.900490 -178.949111 0.000000 0.000000 -0.000000 2.156605 16.208861 -20.023557 -0.469446 -5.007444 10.815651 0.000000 0.000000 0.000000 9.423917 -2.027562 -5.442403 -1.410880 -8.280134 6.912537 
0.639793 -0.137527 -2.292019 -2.968727 5.007939 0.342619 -0.000000 -0.000000 0.000000 -0.868338 -1.803061 2.597758 4.009648 -0.250508 2.795269 0.000000 0.000000 0.000000 3.478733 -0.175797 3.492855 -2.241564 -2.383282 -0.452687 2.663055 0.050975 4.090472 -5.424524 -13.113149 2.219670 -88.766418 8.710767 6.761732 -1.371028 -13.712062 0.761630 3.656450 0.072926 2.565096 9.077879 14.977384 3.306385 40.287034 55.253329 -17.017671 178.429500 40.975591 -178.946684 0.000000 0.000000 -0.000000 2.160844 16.203993 -20.015656 -0.466733 -5.027246 10.806243 0.000000 0.000000 0.000000 9.426205 -2.038011 -5.435355 -1.409797 -8.281894 6.920489 
0.649034 -0.139018 -2.353189 -2.926640 5.023251 0.344777 -0.000000 -0.000000 0.000000 -0.873925 -1.835670 2.591935 4.041090 -0.265596 2.792904 0.000000 0.000000 0.000000 3.497891 -0.179288 3.490986 -2.233431 -2.375204 -0.417874 2.679514 0.047796 4.087114 -5.428600 -13.122003 2.222293 -88.817623 8.645963 6.722096 -1.371431 -13.498556 0.760713 3.684431 0.066660 2.568855 9.129764 14.959453 3.306645 40.386395 55.158177 -16.884508 178.432284 41.067182 -178.948248 0.000000 0.000000 -0.000000 2.165570 16.199922 -20.013165 -0.465789 -5.049304 10.802212 0.000000 0.000000 0.000000 9.428643 -2.047260 -5.430087 -1.411183 -8.283256 6.933964 
0.661697 -0.140283 -2.414398 -2.885183 5.035279 0.345003 -0.000000 -0.000000 0.000000 -0.877990 -1.868673 2.586311 4.075535 -0.281588 2.792227 0.000000 0.000000 0.000000 3.518321 -0.181852 3.490558 -2.225998 -2.365858 -0.379535 2.696482 0.046113 4.086685 -5.432671 -13.128525 2.223385 -88.888071 8.594605 6.678800 -1.371738 -13.269516 0.757936 3.714270 0.060410 2.572362 9.184698 14.941714 3.307786 40.500914 55.067846 -16.719967 178.438571 41.152199 -178.947721 0.000000 -0.000000 -0.000000 2.169630 16.196054 -20.009388 -0.464340 -5.063543 10.798073 0.000000 0.000000 0.000000 9.430331 -2.053988 -5.426404 -1.410065 -8.284169 6.944961 
0.677979 -0.141287 -2.475761 -2.845620 5.056797 0.341502 -0.000000 -0.000000 0.000000 -0.884471 -1.903147 2.575327 4.112305 -0.298027 2.789871 0.000000 0.000000 0.000000 3.540100 -0.184311 3.490043 -2.218334 -2.354653 -0.338347 2.715173 0.045092 4.087099 -5.442743 -13.140038 2.227039 -88.944765 8.509458 6.625440 -1.371165 -13.027778 0.757387 3.747313 0.054566 2.575246 9.244067 14.924584 3.307023 40.601781 54.974253 -16.566490 178.443482 41.245085 -178.950022 0.000000 -0.000000 -0.000000 2.173901 16.194522 -19.999985 -0.461453 -5.077166 10.786526 0.000000 0.000000 0.000000 9.431986 -2.060377 -5.417195 -1.404859 -8.287094 6.941433 
0.698015 -0.141905 -2.537349 -2.807815 5.072881 0.336864 -0.000000 -0.000000 0.000000 -0.893082 -1.941046 2.566872 4.154691 -0.315416 2.788766 0.000000 0.000000 0.000000 3.564729 -0.185857 3.492638 -2.210896 -2.343223 -0.296039 2.736527 0.045494 4.088666 -5.449867 -13.151834 2.228345 -89.015782 8.424872 6.553451 -1.372302 -12.762710 0.753651 3.784778 0.049679 2.581333 9.311142 14.898307 3.304062 40.714941 54.862823 -16.394699 178.450917 41.347376 -178.951400 0.000000 -0.000000 -0.000000 2.176244 16.192747 -19.990481 -0.460480 -5.089449 10.769530 0.000000 0.000000 0.000000 9.431119 -2.065822 -5.412493 -1.402288 -8.288076 6.949181 
0.721957 -0.142142 -2.599218 -2.772454 5.095134 0.329892 -0.000000 -0.000000 0.000000 -0.904755 -1.981234 2.557306 4.201182 -0.334346 2.791924 0.000000 0.000000 0.000000 3.592113 -0.186803 3.496684 -2.203743 -2.330098 -0.250510 2.759574 0.047650 4.095606 -5.457850 -13.159447 2.231751 -89.104645 8.346622 6.478710 -1.372754 -12.465429 0.752162 3.828233 0.044350 2.589074 9.389185 14.870200 3.300033 40.821700 54.748487 -16.224893 178.457717 41.456269 -178.956213 0.000000 -0.000000 -0.000000 2.181545 16.191986 -19.981042 -0.457265 -5.094699 10.761628 0.000000 0.000000 0.000000 9.429304 -2.068753 -5.403838 -1.398961 -8.293507 6.946679 
0.749920 -0.142023 -2.661517 -2.738185 5.116290 0.320740 -0.000000 -0.000000 0.000000 -0.918563 -2.024316 2.551378 4.252347 -0.353553 2.799543 0.000000 0.000000 0.000000 3.622362 -0.186912 3.504286 -2.196186 -2.315556 -0.202124 2.786518 0.049939 4.103743 -5.463548 -13.170298 2.235331 -89.188611 8.267359 6.403070 -1.373843 -12.158294 0.747181 3.876078 0.039059 2.597320 9.474241 14.835493 3.293769 40.925097 54.628466 -16.046360 178.468038 41.592347 -178.960217 0.000000 -0.000000 -0.000000 2.182402 16.190342 -19.974009 -0.454759 -5.102096 10.750933 0.000000 0.000000 0.000000 9.427136 -2.072160 -5.395926 -1.390840 -8.298817 6.938129 
0.782238 -0.141498 -2.724291 -2.707376 5.139089 0.308926 -0.000000 -0.000000 0.000000 -0.933323 -2.065965 2.542916 4.305124 -0.371760 2.807872 0.000000 0.000000 0.000000 3.653301 -0.185745 3.512593 -2.189886 -2.299134 -0.152692 2.809700 0.055330 4.114814 -5.469720 -13.176486 2.239204 -89.279575 8.189652 6.294241 -1.375724 -11.807045 0.743441 3.926473 0.035291 2.603963 9.562975 14.791569 3.287529 41.009726 54.518696 -15.879575 178.476944 41.760747 -178.970276 0.000000 -0.000000 -0.000000 2.186562 16.189785 -19.961795 -0.452864 -5.104105 10.738109 0.000000 0.000000 0.000000 9.422703 -2.073653 -5.385893 -1.382544 -8.306120 6.929863 
0.819152 -0.140505 -2.787623 -2.679935 5.158845 0.295351 -0.000000 -0.000000 0.000000 -0.945554 -2.102195 2.538345 4.355293 -0.385077 2.815393 0.000000 0.000000 0.000000 3.683122 -0.181762 3.520360 -2.182723 -2.280306 -0.099840 2.829104 0.063634 4.122933 -5.478296 -13.181002 2.243230 -89.374228 8.094682 6.179800 -1.375977 -11.440688 0.738953 3.974452 0.036232 2.609428 9.653900 14.729306 3.280256 41.079923 54.399402 -15.724481 178.485960 41.970284 -178.985156 0.000000 -0.000000 -0.000000 2.187113 16.189446 -19.946402 -0.450237 -5.101431 10.721327 0.000000 0.000000 0.000000 9.416531 -2.074044 -5.375953 -1.369085 -8.311817 6.916562 
0.860981 -0.138964 -2.851635 -2.654932 5.178531 0.279364 -0.000000 -0.000000 0.000000 -0.957383 -2.133168 2.538797 4.400579 -0.394982 2.817561 0.000000 0.000000 0.000000 3.710034 -0.175178 3.519968 -2.176195 -2.259389 -0.044995 2.846740 0.074390 4.128018 -5.484574 -13.184769 2.246670 -89.466153 8.008749 6.061694 -1.375445 -11.064401 0.736617 4.019010 0.040172 2.609371 9.741798 14.653807 3.272513 41.144678 54.281257 -15.571783 178.495007 42.206210 -179.004512 0.000000 -0.000000 -0.000000 2.190202 16.188788 -19.933315 -0.449472 -5.093847 10.714428 0.000000 0.000000 0.000000 9.408242 -2.074412 -5.360778 -1.353778 -8.319950 6.894415 
0.908002 -0.136821 -2.916442 -2.633407 5.196669 0.261229 -0.000000 -0.000000 0.000000 -0.967313 -2.156197 2.535642 4.438126 -0.402660 2.807953 0.000000 0.000000 0.000000 3.734543 -0.165763 3.511981 -2.169540 -2.235767 0.012799 2.862161 0.086886 4.128343 -5.487336 -13.189003 2.251550 -89.553521 7.932003 5.953748 -1.375966 -10.687317 0.733461 4.058445 0.051270 2.603091 9.822995 14.571244 3.264311 41.240087 54.152711 -15.388750 178.503813 42.485665 -179.026764 0.000000 -0.000000 -0.000000 2.191734 16.187631 -19.919737 -0.447419 -5.076167 10.710241 0.000000 -0.000000 0.000000 9.399055 -2.071363 -5.346783 -1.329200 -8.315614 6.869768 
0.960494 -0.134126 -2.982131 -2.615314 5.215544 0.242559 -0.000000 -0.000000 0.000000 -0.977059 -2.176956 2.527489 4.474090 -0.407296 2.793342 0.000000 0.000000 0.000000 3.757596 -0.153999 3.501671 -2.163200 -2.210421 0.071983 2.875946 0.101758 4.123871 -5.484105 -13.183668 2.252056 -89.633024 7.844226 5.817539 -1.374793 -10.305858 0.731061 4.095247 0.065439 2.597217 9.905943 14.488655 3.256001 41.343055 53.985045 -15.187933 178.513096 42.794750 -179.054894 0.000000 -0.000000 0.000000 2.192726 16.187105 -19.902994 -0.445560 -5.055364 10.701138 0.000000 -0.000000 0.000000 9.388325 -2.068476 -5.331830 -1.305262 -8.304940 6.840137 
